%TF.GenerationSoftware,KiCad,Pcbnew,5.1.6-c6e7f7d~86~ubuntu16.04.1*%
%TF.CreationDate,2020-06-20T04:05:00+01:00*%
%TF.ProjectId,microtan-cassette-pcb,6d696372-6f74-4616-9e2d-636173736574,rev?*%
%TF.SameCoordinates,Original*%
%TF.FileFunction,Legend,Top*%
%TF.FilePolarity,Positive*%
%FSLAX46Y46*%
G04 Gerber Fmt 4.6, Leading zero omitted, Abs format (unit mm)*
G04 Created by KiCad (PCBNEW 5.1.6-c6e7f7d~86~ubuntu16.04.1) date 2020-06-20 04:05:00*
%MOMM*%
%LPD*%
G01*
G04 APERTURE LIST*
%ADD10C,0.150000*%
G04 APERTURE END LIST*
D10*
%TO.C,EC1*%
X216281000Y-40259000D02*
X220726000Y-40259000D01*
X216281000Y-122809000D02*
X216281000Y-40259000D01*
X220726000Y-122809000D02*
X216281000Y-122809000D01*
X220726000Y-122809000D02*
X220726000Y-128524000D01*
X220726000Y-40259000D02*
X220726000Y-34544000D01*
X220726000Y-128524000D02*
X228346000Y-128524000D01*
X220726000Y-34544000D02*
X228346000Y-34544000D01*
X228346000Y-128524000D02*
X228346000Y-125349000D01*
X228346000Y-34544000D02*
X228346000Y-37719000D01*
X233426000Y-37719000D02*
X228346000Y-37719000D01*
X233426000Y-125349000D02*
X233426000Y-37719000D01*
X228346000Y-125349000D02*
X233426000Y-125349000D01*
X226441000Y-128524000D02*
X226441000Y-34544000D01*
X224536000Y-125984000D02*
G75*
G03*
X224536000Y-125984000I-1270000J0D01*
G01*
X224536000Y-37084000D02*
G75*
G03*
X224536000Y-37084000I-1270000J0D01*
G01*
%TO.C,XA1*%
X24892000Y-51054000D02*
X122428000Y-51054000D01*
X24892000Y-104394000D02*
X123952000Y-104394000D01*
X122428000Y-51054000D02*
X123952000Y-52578000D01*
X123952000Y-104394000D02*
X123952000Y-103124000D01*
X123952000Y-103124000D02*
X126492000Y-100584000D01*
X126492000Y-100584000D02*
X126492000Y-66294000D01*
X126492000Y-66294000D02*
X123952000Y-63754000D01*
X123952000Y-63754000D02*
X123952000Y-52578000D01*
X24892000Y-51054000D02*
X24892000Y-104394000D01*
%TO.C,EC1*%
X224464571Y-77644476D02*
X224464571Y-77311142D01*
X224988380Y-77168285D02*
X224988380Y-77644476D01*
X223988380Y-77644476D01*
X223988380Y-77168285D01*
X224893142Y-76168285D02*
X224940761Y-76215904D01*
X224988380Y-76358761D01*
X224988380Y-76454000D01*
X224940761Y-76596857D01*
X224845523Y-76692095D01*
X224750285Y-76739714D01*
X224559809Y-76787333D01*
X224416952Y-76787333D01*
X224226476Y-76739714D01*
X224131238Y-76692095D01*
X224036000Y-76596857D01*
X223988380Y-76454000D01*
X223988380Y-76358761D01*
X224036000Y-76215904D01*
X224083619Y-76168285D01*
X224988380Y-75215904D02*
X224988380Y-75787333D01*
X224988380Y-75501619D02*
X223988380Y-75501619D01*
X224131238Y-75596857D01*
X224226476Y-75692095D01*
X224274095Y-75787333D01*
X223988380Y-93875904D02*
X223988380Y-93304476D01*
X224988380Y-93590190D02*
X223988380Y-93590190D01*
X224702666Y-93018761D02*
X224702666Y-92542571D01*
X224988380Y-93114000D02*
X223988380Y-92780666D01*
X224988380Y-92447333D01*
X224988380Y-92114000D02*
X223988380Y-92114000D01*
X224988380Y-91542571D01*
X223988380Y-91542571D01*
X224464571Y-90733047D02*
X224512190Y-90590190D01*
X224559809Y-90542571D01*
X224655047Y-90494952D01*
X224797904Y-90494952D01*
X224893142Y-90542571D01*
X224940761Y-90590190D01*
X224988380Y-90685428D01*
X224988380Y-91066380D01*
X223988380Y-91066380D01*
X223988380Y-90733047D01*
X224036000Y-90637809D01*
X224083619Y-90590190D01*
X224178857Y-90542571D01*
X224274095Y-90542571D01*
X224369333Y-90590190D01*
X224416952Y-90637809D01*
X224464571Y-90733047D01*
X224464571Y-91066380D01*
X223988380Y-90066380D02*
X224797904Y-90066380D01*
X224893142Y-90018761D01*
X224940761Y-89971142D01*
X224988380Y-89875904D01*
X224988380Y-89685428D01*
X224940761Y-89590190D01*
X224893142Y-89542571D01*
X224797904Y-89494952D01*
X223988380Y-89494952D01*
X224940761Y-89066380D02*
X224988380Y-88923523D01*
X224988380Y-88685428D01*
X224940761Y-88590190D01*
X224893142Y-88542571D01*
X224797904Y-88494952D01*
X224702666Y-88494952D01*
X224607428Y-88542571D01*
X224559809Y-88590190D01*
X224512190Y-88685428D01*
X224464571Y-88875904D01*
X224416952Y-88971142D01*
X224369333Y-89018761D01*
X224274095Y-89066380D01*
X224178857Y-89066380D01*
X224083619Y-89018761D01*
X224036000Y-88971142D01*
X223988380Y-88875904D01*
X223988380Y-88637809D01*
X224036000Y-88494952D01*
X225083619Y-88304476D02*
X225083619Y-87542571D01*
X224464571Y-87304476D02*
X224464571Y-86971142D01*
X224988380Y-86828285D02*
X224988380Y-87304476D01*
X223988380Y-87304476D01*
X223988380Y-86828285D01*
X223988380Y-86494952D02*
X224988380Y-85828285D01*
X223988380Y-85828285D02*
X224988380Y-86494952D01*
X224988380Y-85447333D02*
X223988380Y-85447333D01*
X223988380Y-85066380D01*
X224036000Y-84971142D01*
X224083619Y-84923523D01*
X224178857Y-84875904D01*
X224321714Y-84875904D01*
X224416952Y-84923523D01*
X224464571Y-84971142D01*
X224512190Y-85066380D01*
X224512190Y-85447333D01*
X224702666Y-84494952D02*
X224702666Y-84018761D01*
X224988380Y-84590190D02*
X223988380Y-84256857D01*
X224988380Y-83923523D01*
X224988380Y-83590190D02*
X223988380Y-83590190D01*
X224988380Y-83018761D01*
X223988380Y-83018761D01*
X224940761Y-82590190D02*
X224988380Y-82447333D01*
X224988380Y-82209238D01*
X224940761Y-82114000D01*
X224893142Y-82066380D01*
X224797904Y-82018761D01*
X224702666Y-82018761D01*
X224607428Y-82066380D01*
X224559809Y-82114000D01*
X224512190Y-82209238D01*
X224464571Y-82399714D01*
X224416952Y-82494952D01*
X224369333Y-82542571D01*
X224274095Y-82590190D01*
X224178857Y-82590190D01*
X224083619Y-82542571D01*
X224036000Y-82494952D01*
X223988380Y-82399714D01*
X223988380Y-82161619D01*
X224036000Y-82018761D01*
X224988380Y-81590190D02*
X223988380Y-81590190D01*
X223988380Y-80923523D02*
X223988380Y-80733047D01*
X224036000Y-80637809D01*
X224131238Y-80542571D01*
X224321714Y-80494952D01*
X224655047Y-80494952D01*
X224845523Y-80542571D01*
X224940761Y-80637809D01*
X224988380Y-80733047D01*
X224988380Y-80923523D01*
X224940761Y-81018761D01*
X224845523Y-81114000D01*
X224655047Y-81161619D01*
X224321714Y-81161619D01*
X224131238Y-81114000D01*
X224036000Y-81018761D01*
X223988380Y-80923523D01*
X224988380Y-80066380D02*
X223988380Y-80066380D01*
X224988380Y-79494952D01*
X223988380Y-79494952D01*
%TO.C,XA1*%
X26193904Y-49490380D02*
X26860571Y-50490380D01*
X26860571Y-49490380D02*
X26193904Y-50490380D01*
X27193904Y-50204666D02*
X27670095Y-50204666D01*
X27098666Y-50490380D02*
X27432000Y-49490380D01*
X27765333Y-50490380D01*
X28622476Y-50490380D02*
X28051047Y-50490380D01*
X28336761Y-50490380D02*
X28336761Y-49490380D01*
X28241523Y-49633238D01*
X28146285Y-49728476D01*
X28051047Y-49776095D01*
X87376000Y-72747142D02*
X87423619Y-72794761D01*
X87376000Y-72842380D01*
X87328380Y-72794761D01*
X87376000Y-72747142D01*
X87376000Y-72842380D01*
%TD*%
M02*
