M48
; DRILL file {KiCad 5.1.6-c6e7f7d~86~ubuntu16.04.1} date Sat Jun 20 04:04:56 2020
; FORMAT={-:-/ absolute / inch / decimal}
; #@! TF.CreationDate,2020-06-20T04:04:56+01:00
; #@! TF.GenerationSoftware,Kicad,Pcbnew,5.1.6-c6e7f7d~86~ubuntu16.04.1
; #@! TF.FileFunction,Plated,1,2,PTH
FMAT,2
INCH
T1C0.0400
%
G90
G05
T1
X1.72Y-2.11
X1.82Y-2.11
X1.92Y-2.11
X2.02Y-2.11
X2.08Y-4.01
X2.12Y-2.11
X2.18Y-4.01
X2.22Y-2.11
X2.28Y-4.01
X2.32Y-2.11
X2.38Y-4.01
X2.42Y-2.11
X2.48Y-4.01
X2.52Y-2.11
X2.58Y-4.01
X2.62Y-2.11
X2.68Y-4.01
X2.78Y-2.11
X2.78Y-4.01
X2.88Y-2.11
X2.98Y-2.11
X2.98Y-4.01
X3.08Y-2.11
X3.08Y-4.01
X3.18Y-2.11
X3.18Y-4.01
X3.28Y-2.11
X3.28Y-4.01
X3.38Y-2.11
X3.38Y-4.01
X3.48Y-2.11
X3.48Y-4.01
X3.485Y-2.91
X3.485Y-3.01
X3.485Y-3.11
X3.58Y-4.01
X3.585Y-2.91
X3.585Y-3.01
X3.585Y-3.11
X3.68Y-2.11
X3.68Y-4.01
X3.78Y-2.11
X3.88Y-2.11
X3.88Y-4.01
X3.98Y-2.11
X3.98Y-4.01
X4.08Y-2.11
X4.08Y-4.01
X4.18Y-2.11
X4.18Y-4.01
X4.28Y-2.11
X4.28Y-4.01
X4.38Y-2.11
X4.38Y-4.01
X4.48Y-4.01
X4.58Y-4.01
X4.68Y-2.11
X4.68Y-2.21
X4.68Y-2.31
X4.68Y-2.41
X4.68Y-2.51
X4.68Y-2.61
X4.68Y-2.71
X4.68Y-2.81
X4.68Y-2.91
X4.68Y-3.01
X4.68Y-3.11
X4.68Y-3.21
X4.68Y-3.31
X4.68Y-3.41
X4.68Y-3.51
X4.68Y-3.61
X4.68Y-3.71
X4.68Y-3.81
X4.78Y-2.11
X4.78Y-2.21
X4.78Y-2.31
X4.78Y-2.41
X4.78Y-2.51
X4.78Y-2.61
X4.78Y-2.71
X4.78Y-2.81
X4.78Y-2.91
X4.78Y-3.01
X4.78Y-3.11
X4.78Y-3.21
X4.78Y-3.31
X4.78Y-3.41
X4.78Y-3.51
X4.78Y-3.61
X4.78Y-3.71
X4.78Y-3.81
X8.59Y-1.66
X8.59Y-1.76
X8.59Y-1.86
X8.59Y-1.96
X8.59Y-2.06
X8.59Y-2.16
X8.59Y-2.26
X8.59Y-2.36
X8.59Y-2.46
X8.59Y-2.56
X8.59Y-2.66
X8.59Y-2.76
X8.59Y-2.86
X8.59Y-2.96
X8.59Y-3.06
X8.59Y-3.16
X8.59Y-3.26
X8.59Y-3.36
X8.59Y-3.46
X8.59Y-3.56
X8.59Y-3.66
X8.59Y-3.76
X8.59Y-3.86
X8.59Y-3.96
X8.59Y-4.06
X8.59Y-4.16
X8.59Y-4.26
X8.59Y-4.36
X8.59Y-4.46
X8.59Y-4.56
X8.59Y-4.66
X8.59Y-4.76
X8.69Y-1.66
X8.69Y-1.76
X8.69Y-1.86
X8.69Y-1.96
X8.69Y-2.06
X8.69Y-2.16
X8.69Y-2.26
X8.69Y-2.36
X8.69Y-2.46
X8.69Y-2.56
X8.69Y-2.66
X8.69Y-2.76
X8.69Y-2.86
X8.69Y-2.96
X8.69Y-3.06
X8.69Y-3.16
X8.69Y-3.26
X8.69Y-3.36
X8.69Y-3.46
X8.69Y-3.56
X8.69Y-3.66
X8.69Y-3.76
X8.69Y-3.86
X8.69Y-3.96
X8.69Y-4.06
X8.69Y-4.16
X8.69Y-4.26
X8.69Y-4.36
X8.69Y-4.46
X8.69Y-4.56
X8.69Y-4.66
X8.69Y-4.76
T0
M30
