%TF.GenerationSoftware,KiCad,Pcbnew,5.1.6-c6e7f7d~86~ubuntu16.04.1*%
%TF.CreationDate,2020-06-20T04:05:00+01:00*%
%TF.ProjectId,microtan-cassette-pcb,6d696372-6f74-4616-9e2d-636173736574,rev?*%
%TF.SameCoordinates,Original*%
%TF.FileFunction,Copper,L2,Bot*%
%TF.FilePolarity,Positive*%
%FSLAX46Y46*%
G04 Gerber Fmt 4.6, Leading zero omitted, Abs format (unit mm)*
G04 Created by KiCad (PCBNEW 5.1.6-c6e7f7d~86~ubuntu16.04.1) date 2020-06-20 04:05:00*
%MOMM*%
%LPD*%
G01*
G04 APERTURE LIST*
%TA.AperFunction,ComponentPad*%
%ADD10C,1.500000*%
%TD*%
%TA.AperFunction,ComponentPad*%
%ADD11O,1.727200X1.727200*%
%TD*%
%TA.AperFunction,Conductor*%
%ADD12C,0.250000*%
%TD*%
G04 APERTURE END LIST*
D10*
%TO.P,EC1,32b*%
%TO.N,GND*%
X218186000Y-120904000D03*
%TO.P,EC1,31b*%
%TO.N,Net-(EC1-Pad31b)*%
X218186000Y-118364000D03*
%TO.P,EC1,30b*%
%TO.N,Net-(EC1-Pad30b)*%
X218186000Y-115824000D03*
%TO.P,EC1,29b*%
%TO.N,Net-(EC1-Pad29b)*%
X218186000Y-113284000D03*
%TO.P,EC1,28b*%
%TO.N,Net-(EC1-Pad28b)*%
X218186000Y-110744000D03*
%TO.P,EC1,27b*%
%TO.N,Net-(EC1-Pad27b)*%
X218186000Y-108204000D03*
%TO.P,EC1,26b*%
%TO.N,Net-(EC1-Pad26b)*%
X218186000Y-105664000D03*
%TO.P,EC1,25b*%
%TO.N,Net-(EC1-Pad25b)*%
X218186000Y-103124000D03*
%TO.P,EC1,24b*%
%TO.N,Net-(EC1-Pad24b)*%
X218186000Y-100584000D03*
%TO.P,EC1,23b*%
%TO.N,Net-(EC1-Pad23b)*%
X218186000Y-98044000D03*
%TO.P,EC1,22b*%
%TO.N,Net-(EC1-Pad22b)*%
X218186000Y-95504000D03*
%TO.P,EC1,21b*%
%TO.N,Net-(EC1-Pad21b)*%
X218186000Y-92964000D03*
%TO.P,EC1,20b*%
%TO.N,Net-(EC1-Pad20b)*%
X218186000Y-90424000D03*
%TO.P,EC1,19b*%
%TO.N,Net-(EC1-Pad19b)*%
X218186000Y-87884000D03*
%TO.P,EC1,18b*%
%TO.N,Net-(EC1-Pad18b)*%
X218186000Y-85344000D03*
%TO.P,EC1,17b*%
%TO.N,Net-(EC1-Pad17b)*%
X218186000Y-82804000D03*
%TO.P,EC1,16b*%
%TO.N,Net-(EC1-Pad16b)*%
X218186000Y-80264000D03*
%TO.P,EC1,15b*%
%TO.N,Net-(EC1-Pad15b)*%
X218186000Y-77724000D03*
%TO.P,EC1,14b*%
%TO.N,Net-(EC1-Pad14b)*%
X218186000Y-75184000D03*
%TO.P,EC1,13b*%
%TO.N,Net-(EC1-Pad13b)*%
X218186000Y-72644000D03*
%TO.P,EC1,12b*%
%TO.N,Net-(EC1-Pad12b)*%
X218186000Y-70104000D03*
%TO.P,EC1,11b*%
%TO.N,Net-(EC1-Pad11b)*%
X218186000Y-67564000D03*
%TO.P,EC1,10b*%
%TO.N,Net-(EC1-Pad10b)*%
X218186000Y-65024000D03*
%TO.P,EC1,9b*%
%TO.N,Net-(EC1-Pad9b)*%
X218186000Y-62484000D03*
%TO.P,EC1,8b*%
%TO.N,Net-(EC1-Pad8b)*%
X218186000Y-59944000D03*
%TO.P,EC1,7b*%
%TO.N,Net-(EC1-Pad7b)*%
X218186000Y-57404000D03*
%TO.P,EC1,6b*%
%TO.N,Net-(EC1-Pad6b)*%
X218186000Y-54864000D03*
%TO.P,EC1,5b*%
%TO.N,Net-(EC1-Pad5b)*%
X218186000Y-52324000D03*
%TO.P,EC1,4b*%
%TO.N,Net-(EC1-Pad4b)*%
X218186000Y-49784000D03*
%TO.P,EC1,3b*%
%TO.N,Net-(EC1-Pad3b)*%
X218186000Y-47244000D03*
%TO.P,EC1,2b*%
%TO.N,Net-(EC1-Pad2b)*%
X218186000Y-44704000D03*
%TO.P,EC1,32a*%
%TO.N,GND*%
X220726000Y-120904000D03*
%TO.P,EC1,31a*%
%TO.N,Net-(EC1-Pad31a)*%
X220726000Y-118364000D03*
%TO.P,EC1,30a*%
%TO.N,Net-(EC1-Pad30a)*%
X220726000Y-115824000D03*
%TO.P,EC1,29a*%
%TO.N,Net-(EC1-Pad29a)*%
X220726000Y-113284000D03*
%TO.P,EC1,28a*%
%TO.N,Net-(EC1-Pad28a)*%
X220726000Y-110744000D03*
%TO.P,EC1,27a*%
%TO.N,Net-(EC1-Pad27a)*%
X220726000Y-108204000D03*
%TO.P,EC1,26a*%
%TO.N,Net-(EC1-Pad26a)*%
X220726000Y-105664000D03*
%TO.P,EC1,25a*%
%TO.N,Net-(EC1-Pad25a)*%
X220726000Y-103124000D03*
%TO.P,EC1,24a*%
%TO.N,Net-(EC1-Pad24a)*%
X220726000Y-100584000D03*
%TO.P,EC1,23a*%
%TO.N,Net-(EC1-Pad23a)*%
X220726000Y-98044000D03*
%TO.P,EC1,22a*%
%TO.N,Net-(EC1-Pad22a)*%
X220726000Y-95504000D03*
%TO.P,EC1,21a*%
%TO.N,Net-(EC1-Pad21a)*%
X220726000Y-92964000D03*
%TO.P,EC1,20a*%
%TO.N,Net-(EC1-Pad20a)*%
X220726000Y-90424000D03*
%TO.P,EC1,19a*%
%TO.N,Net-(EC1-Pad19a)*%
X220726000Y-87884000D03*
%TO.P,EC1,18a*%
%TO.N,Net-(EC1-Pad18a)*%
X220726000Y-85344000D03*
%TO.P,EC1,17a*%
%TO.N,Net-(EC1-Pad17a)*%
X220726000Y-82804000D03*
%TO.P,EC1,16a*%
%TO.N,Net-(EC1-Pad16a)*%
X220726000Y-80264000D03*
%TO.P,EC1,15a*%
%TO.N,Net-(EC1-Pad15a)*%
X220726000Y-77724000D03*
%TO.P,EC1,14a*%
%TO.N,Net-(EC1-Pad14a)*%
X220726000Y-75184000D03*
%TO.P,EC1,13a*%
%TO.N,Net-(EC1-Pad13a)*%
X220726000Y-72644000D03*
%TO.P,EC1,12a*%
%TO.N,Net-(EC1-Pad12a)*%
X220726000Y-70104000D03*
%TO.P,EC1,11a*%
%TO.N,Net-(EC1-Pad11a)*%
X220726000Y-67564000D03*
%TO.P,EC1,10a*%
%TO.N,Net-(EC1-Pad10a)*%
X220726000Y-65024000D03*
%TO.P,EC1,9a*%
%TO.N,Net-(EC1-Pad9a)*%
X220726000Y-62484000D03*
%TO.P,EC1,8a*%
%TO.N,Net-(EC1-Pad8a)*%
X220726000Y-59944000D03*
%TO.P,EC1,7a*%
%TO.N,Net-(EC1-Pad7a)*%
X220726000Y-57404000D03*
%TO.P,EC1,6a*%
%TO.N,Net-(EC1-Pad6a)*%
X220726000Y-54864000D03*
%TO.P,EC1,5a*%
%TO.N,/A0*%
X220726000Y-52324000D03*
%TO.P,EC1,4a*%
%TO.N,Net-(EC1-Pad4a)*%
X220726000Y-49784000D03*
%TO.P,EC1,3a*%
%TO.N,Net-(EC1-Pad3a)*%
X220726000Y-47244000D03*
%TO.P,EC1,2a*%
%TO.N,Net-(EC1-Pad2a)*%
X220726000Y-44704000D03*
%TO.P,EC1,1b*%
%TO.N,+5V*%
X218186000Y-42164000D03*
%TO.P,EC1,1a*%
X220726000Y-42164000D03*
%TD*%
D11*
%TO.P,XA1,RST2*%
%TO.N,Net-(XA1-PadRST2)*%
X88519000Y-78994000D03*
%TO.P,XA1,GND4*%
%TO.N,Net-(XA1-PadGND4)*%
X91059000Y-78994000D03*
%TO.P,XA1,MOSI*%
%TO.N,Net-(XA1-PadMOSI)*%
X91059000Y-76454000D03*
%TO.P,XA1,SCK*%
%TO.N,Net-(XA1-PadSCK)*%
X88519000Y-76454000D03*
%TO.P,XA1,5V2*%
%TO.N,Net-(XA1-Pad5V2)*%
X91059000Y-73914000D03*
%TO.P,XA1,A0*%
%TO.N,Net-(XA1-PadA0)*%
X75692000Y-101854000D03*
%TO.P,XA1,VIN*%
%TO.N,Net-(XA1-PadVIN)*%
X70612000Y-101854000D03*
%TO.P,XA1,GND3*%
%TO.N,Net-(XA1-PadGND3)*%
X68072000Y-101854000D03*
%TO.P,XA1,GND2*%
%TO.N,Net-(XA1-PadGND2)*%
X65532000Y-101854000D03*
%TO.P,XA1,5V1*%
%TO.N,+5V*%
X62992000Y-101854000D03*
%TO.P,XA1,3V3*%
%TO.N,Net-(XA1-Pad3V3)*%
X60452000Y-101854000D03*
%TO.P,XA1,RST1*%
%TO.N,Net-(XA1-PadRST1)*%
X57912000Y-101854000D03*
%TO.P,XA1,IORF*%
%TO.N,Net-(XA1-PadIORF)*%
X55372000Y-101854000D03*
%TO.P,XA1,D21*%
%TO.N,Net-(XA1-PadD21)*%
X111252000Y-53594000D03*
%TO.P,XA1,D20*%
%TO.N,Net-(XA1-PadD20)*%
X108712000Y-53594000D03*
%TO.P,XA1,D19*%
%TO.N,Net-(XA1-PadD19)*%
X106172000Y-53594000D03*
%TO.P,XA1,D18*%
%TO.N,Net-(XA1-PadD18)*%
X103632000Y-53594000D03*
%TO.P,XA1,D17*%
%TO.N,Net-(XA1-PadD17)*%
X101092000Y-53594000D03*
%TO.P,XA1,D16*%
%TO.N,Net-(XA1-PadD16)*%
X98552000Y-53594000D03*
%TO.P,XA1,D15*%
%TO.N,Net-(XA1-PadD15)*%
X96012000Y-53594000D03*
%TO.P,XA1,D14*%
%TO.N,Net-(XA1-PadD14)*%
X93472000Y-53594000D03*
%TO.P,XA1,D0*%
%TO.N,Net-(XA1-PadD0)*%
X88392000Y-53594000D03*
%TO.P,XA1,D1*%
%TO.N,Net-(XA1-PadD1)*%
X85852000Y-53594000D03*
%TO.P,XA1,D2*%
%TO.N,Net-(XA1-PadD2)*%
X83312000Y-53594000D03*
%TO.P,XA1,D3*%
%TO.N,Net-(XA1-PadD3)*%
X80772000Y-53594000D03*
%TO.P,XA1,D4*%
%TO.N,Net-(XA1-PadD4)*%
X78232000Y-53594000D03*
%TO.P,XA1,D5*%
%TO.N,Net-(XA1-PadD5)*%
X75692000Y-53594000D03*
%TO.P,XA1,D6*%
%TO.N,Net-(XA1-PadD6)*%
X73152000Y-53594000D03*
%TO.P,XA1,D7*%
%TO.N,Net-(XA1-PadD7)*%
X70612000Y-53594000D03*
%TO.P,XA1,GND1*%
%TO.N,Net-(XA1-PadGND1)*%
X51308000Y-53594000D03*
%TO.P,XA1,D8*%
%TO.N,Net-(XA1-PadD8)*%
X66548000Y-53594000D03*
%TO.P,XA1,D9*%
%TO.N,Net-(XA1-PadD9)*%
X64008000Y-53594000D03*
%TO.P,XA1,D10*%
%TO.N,Net-(XA1-PadD10)*%
X61468000Y-53594000D03*
%TO.P,XA1,SCL*%
%TO.N,Net-(XA1-PadSCL)*%
X43688000Y-53594000D03*
%TO.P,XA1,SDA*%
%TO.N,Net-(XA1-PadSDA)*%
X46228000Y-53594000D03*
%TO.P,XA1,AREF*%
%TO.N,Net-(XA1-PadAREF)*%
X48768000Y-53594000D03*
%TO.P,XA1,D13*%
%TO.N,Net-(XA1-PadD13)*%
X53848000Y-53594000D03*
%TO.P,XA1,D12*%
%TO.N,Net-(XA1-PadD12)*%
X56388000Y-53594000D03*
%TO.P,XA1,D11*%
%TO.N,Net-(XA1-PadD11)*%
X58928000Y-53594000D03*
%TO.P,XA1,*%
%TO.N,*%
X52832000Y-101854000D03*
%TO.P,XA1,A1*%
%TO.N,Net-(XA1-PadA1)*%
X78232000Y-101854000D03*
%TO.P,XA1,A2*%
%TO.N,Net-(XA1-PadA2)*%
X80772000Y-101854000D03*
%TO.P,XA1,A3*%
%TO.N,Net-(XA1-PadA3)*%
X83312000Y-101854000D03*
%TO.P,XA1,A4*%
%TO.N,Net-(XA1-PadA4)*%
X85852000Y-101854000D03*
%TO.P,XA1,A5*%
%TO.N,Net-(XA1-PadA5)*%
X88392000Y-101854000D03*
%TO.P,XA1,A6*%
%TO.N,Net-(XA1-PadA6)*%
X90932000Y-101854000D03*
%TO.P,XA1,A7*%
%TO.N,Net-(XA1-PadA7)*%
X93472000Y-101854000D03*
%TO.P,XA1,A8*%
%TO.N,Net-(XA1-PadA8)*%
X98552000Y-101854000D03*
%TO.P,XA1,A9*%
%TO.N,Net-(XA1-PadA9)*%
X101092000Y-101854000D03*
%TO.P,XA1,A10*%
%TO.N,Net-(XA1-PadA10)*%
X103632000Y-101854000D03*
%TO.P,XA1,A11*%
%TO.N,Net-(XA1-PadA11)*%
X106172000Y-101854000D03*
%TO.P,XA1,A12*%
%TO.N,Net-(XA1-PadA12)*%
X108712000Y-101854000D03*
%TO.P,XA1,A13*%
%TO.N,Net-(XA1-PadA13)*%
X111252000Y-101854000D03*
%TO.P,XA1,A14*%
%TO.N,Net-(XA1-PadA14)*%
X113792000Y-101854000D03*
%TO.P,XA1,A15*%
%TO.N,Net-(XA1-PadA15)*%
X116332000Y-101854000D03*
%TO.P,XA1,5V3*%
%TO.N,Net-(XA1-Pad5V3)*%
X118872000Y-53594000D03*
%TO.P,XA1,5V4*%
%TO.N,Net-(XA1-Pad5V4)*%
X121412000Y-53594000D03*
%TO.P,XA1,D22*%
%TO.N,Net-(XA1-PadD22)*%
X118872000Y-56134000D03*
%TO.P,XA1,D23*%
%TO.N,Net-(XA1-PadD23)*%
X121412000Y-56134000D03*
%TO.P,XA1,D24*%
%TO.N,Net-(XA1-PadD24)*%
X118872000Y-58674000D03*
%TO.P,XA1,D25*%
%TO.N,Net-(XA1-PadD25)*%
X121412000Y-58674000D03*
%TO.P,XA1,D26*%
%TO.N,Net-(XA1-PadD26)*%
X118872000Y-61214000D03*
%TO.P,XA1,D27*%
%TO.N,Net-(XA1-PadD27)*%
X121412000Y-61214000D03*
%TO.P,XA1,D28*%
%TO.N,Net-(XA1-PadD28)*%
X118872000Y-63754000D03*
%TO.P,XA1,D29*%
%TO.N,Net-(XA1-PadD29)*%
X121412000Y-63754000D03*
%TO.P,XA1,D30*%
%TO.N,Net-(XA1-PadD30)*%
X118872000Y-66294000D03*
%TO.P,XA1,D31*%
%TO.N,Net-(XA1-PadD31)*%
X121412000Y-66294000D03*
%TO.P,XA1,D32*%
%TO.N,Net-(XA1-PadD32)*%
X118872000Y-68834000D03*
%TO.P,XA1,D33*%
%TO.N,Net-(XA1-PadD33)*%
X121412000Y-68834000D03*
%TO.P,XA1,D34*%
%TO.N,Net-(XA1-PadD34)*%
X118872000Y-71374000D03*
%TO.P,XA1,D35*%
%TO.N,Net-(XA1-PadD35)*%
X121412000Y-71374000D03*
%TO.P,XA1,D36*%
%TO.N,Net-(XA1-PadD36)*%
X118872000Y-73914000D03*
%TO.P,XA1,D37*%
%TO.N,Net-(XA1-PadD37)*%
X121412000Y-73914000D03*
%TO.P,XA1,D38*%
%TO.N,Net-(XA1-PadD38)*%
X118872000Y-76454000D03*
%TO.P,XA1,D39*%
%TO.N,Net-(XA1-PadD39)*%
X121412000Y-76454000D03*
%TO.P,XA1,D40*%
%TO.N,Net-(XA1-PadD40)*%
X118872000Y-78994000D03*
%TO.P,XA1,D41*%
%TO.N,Net-(XA1-PadD41)*%
X121412000Y-78994000D03*
%TO.P,XA1,D42*%
%TO.N,Net-(XA1-PadD42)*%
X118872000Y-81534000D03*
%TO.P,XA1,D43*%
%TO.N,Net-(XA1-PadD43)*%
X121412000Y-81534000D03*
%TO.P,XA1,D44*%
%TO.N,Net-(XA1-PadD44)*%
X118872000Y-84074000D03*
%TO.P,XA1,D45*%
%TO.N,Net-(XA1-PadD45)*%
X121412000Y-84074000D03*
%TO.P,XA1,D46*%
%TO.N,Net-(XA1-PadD46)*%
X118872000Y-86614000D03*
%TO.P,XA1,D47*%
%TO.N,Net-(XA1-PadD47)*%
X121412000Y-86614000D03*
%TO.P,XA1,D48*%
%TO.N,Net-(XA1-PadD48)*%
X118872000Y-89154000D03*
%TO.P,XA1,D49*%
%TO.N,Net-(XA1-PadD49)*%
X121412000Y-89154000D03*
%TO.P,XA1,D50*%
%TO.N,Net-(XA1-PadD50)*%
X118872000Y-91694000D03*
%TO.P,XA1,D51*%
%TO.N,Net-(XA1-PadD51)*%
X121412000Y-91694000D03*
%TO.P,XA1,D52*%
%TO.N,Net-(XA1-PadD52)*%
X118872000Y-94234000D03*
%TO.P,XA1,D53*%
%TO.N,/A0*%
X121412000Y-94234000D03*
%TO.P,XA1,GND5*%
%TO.N,Net-(XA1-PadGND5)*%
X118872000Y-96774000D03*
%TO.P,XA1,GND6*%
%TO.N,GND*%
X121412000Y-96774000D03*
%TO.P,XA1,MISO*%
%TO.N,Net-(XA1-PadMISO)*%
X88519000Y-73914000D03*
%TD*%
D12*
%TO.N,GND*%
X121412000Y-96774000D02*
X189992000Y-96774000D01*
X189992000Y-96774000D02*
X192024000Y-98806000D01*
X192024000Y-98806000D02*
X192024000Y-119126000D01*
X193802000Y-120904000D02*
X218186000Y-120904000D01*
X192024000Y-119126000D02*
X193802000Y-120904000D01*
X218186000Y-120904000D02*
X220726000Y-120904000D01*
%TO.N,/A0*%
X157734000Y-90424000D02*
X153924000Y-94234000D01*
X220726000Y-52324000D02*
X219650999Y-51248999D01*
X153924000Y-94234000D02*
X121412000Y-94234000D01*
X219650999Y-51248999D02*
X159825001Y-51248999D01*
X159825001Y-51248999D02*
X157734000Y-53340000D01*
X157734000Y-53340000D02*
X157734000Y-90424000D01*
%TO.N,+5V*%
X220726000Y-42164000D02*
X218186000Y-42164000D01*
X87040601Y-53186269D02*
X87040601Y-60279399D01*
X87040601Y-60279399D02*
X73914000Y-73406000D01*
X73914000Y-73406000D02*
X66548000Y-73406000D01*
X62992000Y-76962000D02*
X62992000Y-101854000D01*
X66548000Y-73406000D02*
X62992000Y-76962000D01*
X87040601Y-53186269D02*
X101364870Y-38862000D01*
X214884000Y-38862000D02*
X218186000Y-42164000D01*
X101364870Y-38862000D02*
X214884000Y-38862000D01*
%TD*%
M02*
