%TF.GenerationSoftware,KiCad,Pcbnew,5.1.6-c6e7f7d~86~ubuntu16.04.1*%
%TF.CreationDate,2020-06-22T18:40:28+01:00*%
%TF.ProjectId,mirotan-due-cassette-shield,6d69726f-7461-46e2-9d64-75652d636173,rev?*%
%TF.SameCoordinates,Original*%
%TF.FileFunction,Legend,Bot*%
%TF.FilePolarity,Positive*%
%FSLAX46Y46*%
G04 Gerber Fmt 4.6, Leading zero omitted, Abs format (unit mm)*
G04 Created by KiCad (PCBNEW 5.1.6-c6e7f7d~86~ubuntu16.04.1) date 2020-06-22 18:40:28*
%MOMM*%
%LPD*%
G01*
G04 APERTURE LIST*
%ADD10C,0.120000*%
G04 APERTURE END LIST*
D10*
%TO.C,JP4*%
X73960000Y40510000D02*
G75*
G03*
X74660000Y41210000I0J700000D01*
G01*
X72660000Y41210000D02*
G75*
G03*
X73360000Y40510000I700000J0D01*
G01*
X73360000Y43310000D02*
G75*
G03*
X72660000Y42610000I0J-700000D01*
G01*
X74660000Y42610000D02*
G75*
G03*
X73960000Y43310000I-700000J0D01*
G01*
X73360000Y40510000D02*
X73960000Y40510000D01*
X72660000Y42610000D02*
X72660000Y41210000D01*
X73960000Y43310000D02*
X73360000Y43310000D01*
X74660000Y41210000D02*
X74660000Y42610000D01*
%TO.C,JP3*%
X76500000Y40510000D02*
G75*
G03*
X77200000Y41210000I0J700000D01*
G01*
X75200000Y41210000D02*
G75*
G03*
X75900000Y40510000I700000J0D01*
G01*
X75900000Y43310000D02*
G75*
G03*
X75200000Y42610000I0J-700000D01*
G01*
X77200000Y42610000D02*
G75*
G03*
X76500000Y43310000I-700000J0D01*
G01*
X75900000Y40510000D02*
X76500000Y40510000D01*
X75200000Y42610000D02*
X75200000Y41210000D01*
X76500000Y43310000D02*
X75900000Y43310000D01*
X77200000Y41210000D02*
X77200000Y42610000D01*
%TO.C,JP2*%
X79040000Y40510000D02*
G75*
G03*
X79740000Y41210000I0J700000D01*
G01*
X77740000Y41210000D02*
G75*
G03*
X78440000Y40510000I700000J0D01*
G01*
X78440000Y43310000D02*
G75*
G03*
X77740000Y42610000I0J-700000D01*
G01*
X79740000Y42610000D02*
G75*
G03*
X79040000Y43310000I-700000J0D01*
G01*
X78440000Y40510000D02*
X79040000Y40510000D01*
X77740000Y42610000D02*
X77740000Y41210000D01*
X79040000Y43310000D02*
X78440000Y43310000D01*
X79740000Y41210000D02*
X79740000Y42610000D01*
%TO.C,JP1*%
X81580000Y40510000D02*
G75*
G03*
X82280000Y41210000I0J700000D01*
G01*
X80280000Y41210000D02*
G75*
G03*
X80980000Y40510000I700000J0D01*
G01*
X80980000Y43310000D02*
G75*
G03*
X80280000Y42610000I0J-700000D01*
G01*
X82280000Y42610000D02*
G75*
G03*
X81580000Y43310000I-700000J0D01*
G01*
X80980000Y40510000D02*
X81580000Y40510000D01*
X80280000Y42610000D02*
X80280000Y41210000D01*
X81580000Y43310000D02*
X80980000Y43310000D01*
X82280000Y41210000D02*
X82280000Y42610000D01*
%TD*%
M02*
