%TF.GenerationSoftware,KiCad,Pcbnew,5.1.6-c6e7f7d~86~ubuntu16.04.1*%
%TF.CreationDate,2020-06-22T18:40:28+01:00*%
%TF.ProjectId,mirotan-due-cassette-shield,6d69726f-7461-46e2-9d64-75652d636173,rev?*%
%TF.SameCoordinates,Original*%
%TF.FileFunction,Copper,L2,Bot*%
%TF.FilePolarity,Positive*%
%FSLAX46Y46*%
G04 Gerber Fmt 4.6, Leading zero omitted, Abs format (unit mm)*
G04 Created by KiCad (PCBNEW 5.1.6-c6e7f7d~86~ubuntu16.04.1) date 2020-06-22 18:40:28*
%MOMM*%
%LPD*%
G01*
G04 APERTURE LIST*
%TA.AperFunction,EtchedComponent*%
%ADD10C,0.100000*%
%TD*%
%TA.AperFunction,ComponentPad*%
%ADD11O,1.727200X1.727200*%
%TD*%
%TA.AperFunction,ComponentPad*%
%ADD12O,3.048000X1.850000*%
%TD*%
%TA.AperFunction,ComponentPad*%
%ADD13O,1.600000X1.600000*%
%TD*%
%TA.AperFunction,ComponentPad*%
%ADD14C,1.600000*%
%TD*%
%TA.AperFunction,SMDPad,CuDef*%
%ADD15C,0.100000*%
%TD*%
%TA.AperFunction,ComponentPad*%
%ADD16O,1.740000X2.190000*%
%TD*%
%TA.AperFunction,ComponentPad*%
%ADD17C,1.524000*%
%TD*%
%TA.AperFunction,ComponentPad*%
%ADD18R,1.524000X1.524000*%
%TD*%
%TA.AperFunction,ComponentPad*%
%ADD19R,1.300000X1.300000*%
%TD*%
%TA.AperFunction,ComponentPad*%
%ADD20C,1.300000*%
%TD*%
%TA.AperFunction,ComponentPad*%
%ADD21O,2.190000X1.740000*%
%TD*%
%TA.AperFunction,ViaPad*%
%ADD22C,2.000000*%
%TD*%
%TA.AperFunction,Conductor*%
%ADD23C,1.000000*%
%TD*%
G04 APERTURE END LIST*
D10*
%TO.C,JP4*%
G36*
X73460000Y41660000D02*
G01*
X73460000Y42160000D01*
X73060000Y42160000D01*
X73060000Y41660000D01*
X73460000Y41660000D01*
G37*
G36*
X74260000Y41660000D02*
G01*
X74260000Y42160000D01*
X73860000Y42160000D01*
X73860000Y41660000D01*
X74260000Y41660000D01*
G37*
%TO.C,JP3*%
G36*
X76000000Y41660000D02*
G01*
X76000000Y42160000D01*
X75600000Y42160000D01*
X75600000Y41660000D01*
X76000000Y41660000D01*
G37*
G36*
X76800000Y41660000D02*
G01*
X76800000Y42160000D01*
X76400000Y42160000D01*
X76400000Y41660000D01*
X76800000Y41660000D01*
G37*
%TO.C,JP2*%
G36*
X78540000Y41660000D02*
G01*
X78540000Y42160000D01*
X78140000Y42160000D01*
X78140000Y41660000D01*
X78540000Y41660000D01*
G37*
G36*
X79340000Y41660000D02*
G01*
X79340000Y42160000D01*
X78940000Y42160000D01*
X78940000Y41660000D01*
X79340000Y41660000D01*
G37*
%TO.C,JP1*%
G36*
X81080000Y41660000D02*
G01*
X81080000Y42160000D01*
X80680000Y42160000D01*
X80680000Y41660000D01*
X81080000Y41660000D01*
G37*
G36*
X81880000Y41660000D02*
G01*
X81880000Y42160000D01*
X81480000Y42160000D01*
X81480000Y41660000D01*
X81880000Y41660000D01*
G37*
%TD*%
D11*
%TO.P,XA1,MISO*%
%TO.N,Net-(A1-Pad5)*%
X63627000Y34290000D03*
%TO.P,XA1,GND6*%
%TO.N,GND*%
X96520000Y11430000D03*
%TO.P,XA1,GND5*%
X93980000Y11430000D03*
%TO.P,XA1,D53*%
%TO.N,Net-(A1-Pad2)*%
X96520000Y13970000D03*
%TO.P,XA1,D52*%
%TO.N,Net-(XA1-PadD52)*%
X93980000Y13970000D03*
%TO.P,XA1,D51*%
%TO.N,Net-(XA1-PadD51)*%
X96520000Y16510000D03*
%TO.P,XA1,D50*%
%TO.N,Net-(XA1-PadD50)*%
X93980000Y16510000D03*
%TO.P,XA1,D49*%
%TO.N,Net-(XA1-PadD49)*%
X96520000Y19050000D03*
%TO.P,XA1,D48*%
%TO.N,Net-(XA1-PadD48)*%
X93980000Y19050000D03*
%TO.P,XA1,D47*%
%TO.N,Net-(XA1-PadD47)*%
X96520000Y21590000D03*
%TO.P,XA1,D46*%
%TO.N,Net-(XA1-PadD46)*%
X93980000Y21590000D03*
%TO.P,XA1,D45*%
%TO.N,Net-(XA1-PadD45)*%
X96520000Y24130000D03*
%TO.P,XA1,D44*%
%TO.N,Net-(R4-Pad2)*%
X93980000Y24130000D03*
%TO.P,XA1,D43*%
%TO.N,Net-(XA1-PadD43)*%
X96520000Y26670000D03*
%TO.P,XA1,D42*%
%TO.N,Net-(Q1-Pad1)*%
X93980000Y26670000D03*
%TO.P,XA1,D41*%
%TO.N,Net-(XA1-PadD41)*%
X96520000Y29210000D03*
%TO.P,XA1,D40*%
%TO.N,Net-(XA1-PadD40)*%
X93980000Y29210000D03*
%TO.P,XA1,D39*%
%TO.N,Net-(XA1-PadD39)*%
X96520000Y31750000D03*
%TO.P,XA1,D38*%
%TO.N,Net-(XA1-PadD38)*%
X93980000Y31750000D03*
%TO.P,XA1,D37*%
%TO.N,Net-(XA1-PadD37)*%
X96520000Y34290000D03*
%TO.P,XA1,D36*%
%TO.N,Net-(XA1-PadD36)*%
X93980000Y34290000D03*
%TO.P,XA1,D35*%
%TO.N,Net-(XA1-PadD35)*%
X96520000Y36830000D03*
%TO.P,XA1,D34*%
%TO.N,Net-(XA1-PadD34)*%
X93980000Y36830000D03*
%TO.P,XA1,D33*%
%TO.N,Net-(XA1-PadD33)*%
X96520000Y39370000D03*
%TO.P,XA1,D32*%
%TO.N,Net-(XA1-PadD32)*%
X93980000Y39370000D03*
%TO.P,XA1,D31*%
%TO.N,Net-(XA1-PadD31)*%
X96520000Y41910000D03*
%TO.P,XA1,D30*%
%TO.N,Net-(JP1-Pad2)*%
X93980000Y41910000D03*
%TO.P,XA1,D29*%
%TO.N,Net-(XA1-PadD29)*%
X96520000Y44450000D03*
%TO.P,XA1,D28*%
%TO.N,Net-(JP2-Pad2)*%
X93980000Y44450000D03*
%TO.P,XA1,D27*%
%TO.N,Net-(XA1-PadD27)*%
X96520000Y46990000D03*
%TO.P,XA1,D26*%
%TO.N,Net-(XA1-PadD26)*%
X93980000Y46990000D03*
%TO.P,XA1,D25*%
%TO.N,Net-(XA1-PadD25)*%
X96520000Y49530000D03*
%TO.P,XA1,D24*%
%TO.N,Net-(XA1-PadD24)*%
X93980000Y49530000D03*
%TO.P,XA1,D23*%
%TO.N,Net-(XA1-PadD23)*%
X96520000Y52070000D03*
%TO.P,XA1,D22*%
%TO.N,Net-(XA1-PadD22)*%
X93980000Y52070000D03*
%TO.P,XA1,5V4*%
%TO.N,Net-(XA1-Pad5V4)*%
X96520000Y54610000D03*
%TO.P,XA1,5V3*%
%TO.N,Net-(XA1-Pad5V3)*%
X93980000Y54610000D03*
%TO.P,XA1,CANT*%
%TO.N,Net-(XA1-PadCANT)*%
X91440000Y6350000D03*
%TO.P,XA1,CANR*%
%TO.N,Net-(XA1-PadCANR)*%
X88900000Y6350000D03*
%TO.P,XA1,DAC1*%
%TO.N,Net-(XA1-PadDAC1)*%
X86360000Y6350000D03*
%TO.P,XA1,DAC0*%
%TO.N,Net-(XA1-PadDAC0)*%
X83820000Y6350000D03*
%TO.P,XA1,A11*%
%TO.N,Net-(XA1-PadA11)*%
X81280000Y6350000D03*
%TO.P,XA1,A10*%
%TO.N,Net-(XA1-PadA10)*%
X78740000Y6350000D03*
%TO.P,XA1,A9*%
%TO.N,Net-(XA1-PadA9)*%
X76200000Y6350000D03*
%TO.P,XA1,A8*%
%TO.N,Net-(XA1-PadA8)*%
X73660000Y6350000D03*
%TO.P,XA1,A7*%
%TO.N,Net-(XA1-PadA7)*%
X68580000Y6350000D03*
%TO.P,XA1,A6*%
%TO.N,Net-(XA1-PadA6)*%
X66040000Y6350000D03*
%TO.P,XA1,A5*%
%TO.N,Net-(XA1-PadA5)*%
X63500000Y6350000D03*
%TO.P,XA1,A4*%
%TO.N,Net-(XA1-PadA4)*%
X60960000Y6350000D03*
%TO.P,XA1,A3*%
%TO.N,Net-(XA1-PadA3)*%
X58420000Y6350000D03*
%TO.P,XA1,A2*%
%TO.N,Net-(XA1-PadA2)*%
X55880000Y6350000D03*
%TO.P,XA1,A1*%
%TO.N,Net-(XA1-PadA1)*%
X53340000Y6350000D03*
%TO.P,XA1,*%
%TO.N,*%
X27940000Y6350000D03*
%TO.P,XA1,D11*%
%TO.N,Net-(XA1-PadD11)*%
X34036000Y54610000D03*
%TO.P,XA1,D12*%
%TO.N,Net-(XA1-PadD12)*%
X31496000Y54610000D03*
%TO.P,XA1,D13*%
%TO.N,Net-(XA1-PadD13)*%
X28956000Y54610000D03*
%TO.P,XA1,AREF*%
%TO.N,Net-(XA1-PadAREF)*%
X23876000Y54610000D03*
%TO.P,XA1,SDA1*%
%TO.N,Net-(XA1-PadSDA1)*%
X21336000Y54610000D03*
%TO.P,XA1,SCL1*%
%TO.N,Net-(XA1-PadSCL1)*%
X18796000Y54610000D03*
%TO.P,XA1,D10*%
%TO.N,Net-(XA1-PadD10)*%
X36576000Y54610000D03*
%TO.P,XA1,D9*%
%TO.N,Net-(XA1-PadD9)*%
X39116000Y54610000D03*
%TO.P,XA1,D8*%
%TO.N,Net-(XA1-PadD8)*%
X41656000Y54610000D03*
%TO.P,XA1,GND1*%
%TO.N,Net-(XA1-PadGND1)*%
X26416000Y54610000D03*
%TO.P,XA1,D7*%
%TO.N,Net-(XA1-PadD7)*%
X45720000Y54610000D03*
%TO.P,XA1,D6*%
%TO.N,Net-(XA1-PadD6)*%
X48260000Y54610000D03*
%TO.P,XA1,D5*%
%TO.N,Net-(XA1-PadD5)*%
X50800000Y54610000D03*
%TO.P,XA1,D4*%
%TO.N,Net-(XA1-PadD4)*%
X53340000Y54610000D03*
%TO.P,XA1,D3*%
%TO.N,Net-(XA1-PadD3)*%
X55880000Y54610000D03*
%TO.P,XA1,D2*%
%TO.N,Net-(XA1-PadD2)*%
X58420000Y54610000D03*
%TO.P,XA1,D1*%
%TO.N,Net-(XA1-PadD1)*%
X60960000Y54610000D03*
%TO.P,XA1,D0*%
%TO.N,Net-(XA1-PadD0)*%
X63500000Y54610000D03*
%TO.P,XA1,D14*%
%TO.N,Net-(XA1-PadD14)*%
X68580000Y54610000D03*
%TO.P,XA1,D15*%
%TO.N,Net-(XA1-PadD15)*%
X71120000Y54610000D03*
%TO.P,XA1,D16*%
%TO.N,Net-(XA1-PadD16)*%
X73660000Y54610000D03*
%TO.P,XA1,D17*%
%TO.N,Net-(XA1-PadD17)*%
X76200000Y54610000D03*
%TO.P,XA1,D18*%
%TO.N,Net-(XA1-PadD18)*%
X78740000Y54610000D03*
%TO.P,XA1,D19*%
%TO.N,Net-(XA1-PadD19)*%
X81280000Y54610000D03*
%TO.P,XA1,D20*%
%TO.N,Net-(XA1-PadD20)*%
X83820000Y54610000D03*
%TO.P,XA1,D21*%
%TO.N,Net-(XA1-PadD21)*%
X86360000Y54610000D03*
%TO.P,XA1,IORF*%
%TO.N,Net-(XA1-PadIORF)*%
X30480000Y6350000D03*
%TO.P,XA1,RST1*%
%TO.N,Net-(XA1-PadRST1)*%
X33020000Y6350000D03*
%TO.P,XA1,3V3*%
%TO.N,+3V3*%
X35560000Y6350000D03*
%TO.P,XA1,5V1*%
%TO.N,+5V*%
X38100000Y6350000D03*
%TO.P,XA1,GND2*%
%TO.N,Net-(XA1-PadGND2)*%
X40640000Y6350000D03*
%TO.P,XA1,GND3*%
%TO.N,GND*%
X43180000Y6350000D03*
%TO.P,XA1,VIN*%
%TO.N,Net-(XA1-PadVIN)*%
X45720000Y6350000D03*
%TO.P,XA1,A0*%
%TO.N,Net-(XA1-PadA0)*%
X50800000Y6350000D03*
%TO.P,XA1,5V2*%
%TO.N,Net-(XA1-Pad5V2)*%
X66167000Y34290000D03*
%TO.P,XA1,SCK*%
%TO.N,Net-(A1-Pad4)*%
X63627000Y31750000D03*
%TO.P,XA1,MOSI*%
%TO.N,Net-(A1-Pad3)*%
X66167000Y31750000D03*
%TO.P,XA1,GND4*%
%TO.N,Net-(XA1-PadGND4)*%
X66167000Y29210000D03*
%TO.P,XA1,RST2*%
%TO.N,Net-(XA1-PadRST2)*%
X63627000Y29210000D03*
%TD*%
D12*
%TO.P,SW3,2*%
%TO.N,Net-(R6-Pad2)*%
X72390000Y-12620000D03*
%TO.P,SW3,1*%
%TO.N,GND*%
X72390000Y-7620000D03*
%TO.P,SW3,2*%
%TO.N,Net-(R6-Pad2)*%
X84890000Y-12620000D03*
%TO.P,SW3,1*%
%TO.N,GND*%
X84890000Y-7620000D03*
%TD*%
%TO.P,SW2,2*%
%TO.N,Net-(R7-Pad2)*%
X20320000Y-12620000D03*
%TO.P,SW2,1*%
%TO.N,GND*%
X20320000Y-7620000D03*
%TO.P,SW2,2*%
%TO.N,Net-(R7-Pad2)*%
X32820000Y-12620000D03*
%TO.P,SW2,1*%
%TO.N,GND*%
X32820000Y-7620000D03*
%TD*%
%TO.P,SW1,2*%
%TO.N,Net-(R5-Pad2)*%
X46990000Y-12620000D03*
%TO.P,SW1,1*%
%TO.N,GND*%
X46990000Y-7620000D03*
%TO.P,SW1,2*%
%TO.N,Net-(R5-Pad2)*%
X59490000Y-12620000D03*
%TO.P,SW1,1*%
%TO.N,GND*%
X59490000Y-7620000D03*
%TD*%
D13*
%TO.P,R7,2*%
%TO.N,Net-(R7-Pad2)*%
X39370000Y-12700000D03*
D14*
%TO.P,R7,1*%
%TO.N,+3V3*%
X39370000Y-7620000D03*
%TD*%
D13*
%TO.P,R6,2*%
%TO.N,Net-(R6-Pad2)*%
X92710000Y-12700000D03*
D14*
%TO.P,R6,1*%
%TO.N,+3V3*%
X92710000Y-7620000D03*
%TD*%
D13*
%TO.P,R5,2*%
%TO.N,Net-(R5-Pad2)*%
X66040000Y-12700000D03*
D14*
%TO.P,R5,1*%
%TO.N,+3V3*%
X66040000Y-7620000D03*
%TD*%
%TA.AperFunction,SMDPad,CuDef*%
D15*
%TO.P,JP4,1*%
%TO.N,Net-(J2-Pad4)*%
G36*
X74410000Y41760000D02*
G01*
X74410000Y41260000D01*
X74409398Y41260000D01*
X74409398Y41235466D01*
X74404588Y41186635D01*
X74395016Y41138510D01*
X74380772Y41091555D01*
X74361995Y41046222D01*
X74338864Y41002949D01*
X74311604Y40962150D01*
X74280476Y40924221D01*
X74245779Y40889524D01*
X74207850Y40858396D01*
X74167051Y40831136D01*
X74123778Y40808005D01*
X74078445Y40789228D01*
X74031490Y40774984D01*
X73983365Y40765412D01*
X73934534Y40760602D01*
X73910000Y40760602D01*
X73910000Y40760000D01*
X73410000Y40760000D01*
X73410000Y40760602D01*
X73385466Y40760602D01*
X73336635Y40765412D01*
X73288510Y40774984D01*
X73241555Y40789228D01*
X73196222Y40808005D01*
X73152949Y40831136D01*
X73112150Y40858396D01*
X73074221Y40889524D01*
X73039524Y40924221D01*
X73008396Y40962150D01*
X72981136Y41002949D01*
X72958005Y41046222D01*
X72939228Y41091555D01*
X72924984Y41138510D01*
X72915412Y41186635D01*
X72910602Y41235466D01*
X72910602Y41260000D01*
X72910000Y41260000D01*
X72910000Y41760000D01*
X74410000Y41760000D01*
G37*
%TD.AperFunction*%
%TA.AperFunction,SMDPad,CuDef*%
%TO.P,JP4,2*%
%TO.N,GND*%
G36*
X72910602Y42560000D02*
G01*
X72910602Y42584534D01*
X72915412Y42633365D01*
X72924984Y42681490D01*
X72939228Y42728445D01*
X72958005Y42773778D01*
X72981136Y42817051D01*
X73008396Y42857850D01*
X73039524Y42895779D01*
X73074221Y42930476D01*
X73112150Y42961604D01*
X73152949Y42988864D01*
X73196222Y43011995D01*
X73241555Y43030772D01*
X73288510Y43045016D01*
X73336635Y43054588D01*
X73385466Y43059398D01*
X73410000Y43059398D01*
X73410000Y43060000D01*
X73910000Y43060000D01*
X73910000Y43059398D01*
X73934534Y43059398D01*
X73983365Y43054588D01*
X74031490Y43045016D01*
X74078445Y43030772D01*
X74123778Y43011995D01*
X74167051Y42988864D01*
X74207850Y42961604D01*
X74245779Y42930476D01*
X74280476Y42895779D01*
X74311604Y42857850D01*
X74338864Y42817051D01*
X74361995Y42773778D01*
X74380772Y42728445D01*
X74395016Y42681490D01*
X74404588Y42633365D01*
X74409398Y42584534D01*
X74409398Y42560000D01*
X74410000Y42560000D01*
X74410000Y42060000D01*
X72910000Y42060000D01*
X72910000Y42560000D01*
X72910602Y42560000D01*
G37*
%TD.AperFunction*%
%TD*%
%TA.AperFunction,SMDPad,CuDef*%
%TO.P,JP3,1*%
%TO.N,Net-(J2-Pad3)*%
G36*
X76950000Y41760000D02*
G01*
X76950000Y41260000D01*
X76949398Y41260000D01*
X76949398Y41235466D01*
X76944588Y41186635D01*
X76935016Y41138510D01*
X76920772Y41091555D01*
X76901995Y41046222D01*
X76878864Y41002949D01*
X76851604Y40962150D01*
X76820476Y40924221D01*
X76785779Y40889524D01*
X76747850Y40858396D01*
X76707051Y40831136D01*
X76663778Y40808005D01*
X76618445Y40789228D01*
X76571490Y40774984D01*
X76523365Y40765412D01*
X76474534Y40760602D01*
X76450000Y40760602D01*
X76450000Y40760000D01*
X75950000Y40760000D01*
X75950000Y40760602D01*
X75925466Y40760602D01*
X75876635Y40765412D01*
X75828510Y40774984D01*
X75781555Y40789228D01*
X75736222Y40808005D01*
X75692949Y40831136D01*
X75652150Y40858396D01*
X75614221Y40889524D01*
X75579524Y40924221D01*
X75548396Y40962150D01*
X75521136Y41002949D01*
X75498005Y41046222D01*
X75479228Y41091555D01*
X75464984Y41138510D01*
X75455412Y41186635D01*
X75450602Y41235466D01*
X75450602Y41260000D01*
X75450000Y41260000D01*
X75450000Y41760000D01*
X76950000Y41760000D01*
G37*
%TD.AperFunction*%
%TA.AperFunction,SMDPad,CuDef*%
%TO.P,JP3,2*%
%TO.N,+3V3*%
G36*
X75450602Y42560000D02*
G01*
X75450602Y42584534D01*
X75455412Y42633365D01*
X75464984Y42681490D01*
X75479228Y42728445D01*
X75498005Y42773778D01*
X75521136Y42817051D01*
X75548396Y42857850D01*
X75579524Y42895779D01*
X75614221Y42930476D01*
X75652150Y42961604D01*
X75692949Y42988864D01*
X75736222Y43011995D01*
X75781555Y43030772D01*
X75828510Y43045016D01*
X75876635Y43054588D01*
X75925466Y43059398D01*
X75950000Y43059398D01*
X75950000Y43060000D01*
X76450000Y43060000D01*
X76450000Y43059398D01*
X76474534Y43059398D01*
X76523365Y43054588D01*
X76571490Y43045016D01*
X76618445Y43030772D01*
X76663778Y43011995D01*
X76707051Y42988864D01*
X76747850Y42961604D01*
X76785779Y42930476D01*
X76820476Y42895779D01*
X76851604Y42857850D01*
X76878864Y42817051D01*
X76901995Y42773778D01*
X76920772Y42728445D01*
X76935016Y42681490D01*
X76944588Y42633365D01*
X76949398Y42584534D01*
X76949398Y42560000D01*
X76950000Y42560000D01*
X76950000Y42060000D01*
X75450000Y42060000D01*
X75450000Y42560000D01*
X75450602Y42560000D01*
G37*
%TD.AperFunction*%
%TD*%
%TA.AperFunction,SMDPad,CuDef*%
%TO.P,JP2,1*%
%TO.N,Net-(J2-Pad2)*%
G36*
X79490000Y41760000D02*
G01*
X79490000Y41260000D01*
X79489398Y41260000D01*
X79489398Y41235466D01*
X79484588Y41186635D01*
X79475016Y41138510D01*
X79460772Y41091555D01*
X79441995Y41046222D01*
X79418864Y41002949D01*
X79391604Y40962150D01*
X79360476Y40924221D01*
X79325779Y40889524D01*
X79287850Y40858396D01*
X79247051Y40831136D01*
X79203778Y40808005D01*
X79158445Y40789228D01*
X79111490Y40774984D01*
X79063365Y40765412D01*
X79014534Y40760602D01*
X78990000Y40760602D01*
X78990000Y40760000D01*
X78490000Y40760000D01*
X78490000Y40760602D01*
X78465466Y40760602D01*
X78416635Y40765412D01*
X78368510Y40774984D01*
X78321555Y40789228D01*
X78276222Y40808005D01*
X78232949Y40831136D01*
X78192150Y40858396D01*
X78154221Y40889524D01*
X78119524Y40924221D01*
X78088396Y40962150D01*
X78061136Y41002949D01*
X78038005Y41046222D01*
X78019228Y41091555D01*
X78004984Y41138510D01*
X77995412Y41186635D01*
X77990602Y41235466D01*
X77990602Y41260000D01*
X77990000Y41260000D01*
X77990000Y41760000D01*
X79490000Y41760000D01*
G37*
%TD.AperFunction*%
%TA.AperFunction,SMDPad,CuDef*%
%TO.P,JP2,2*%
%TO.N,Net-(JP2-Pad2)*%
G36*
X77990602Y42560000D02*
G01*
X77990602Y42584534D01*
X77995412Y42633365D01*
X78004984Y42681490D01*
X78019228Y42728445D01*
X78038005Y42773778D01*
X78061136Y42817051D01*
X78088396Y42857850D01*
X78119524Y42895779D01*
X78154221Y42930476D01*
X78192150Y42961604D01*
X78232949Y42988864D01*
X78276222Y43011995D01*
X78321555Y43030772D01*
X78368510Y43045016D01*
X78416635Y43054588D01*
X78465466Y43059398D01*
X78490000Y43059398D01*
X78490000Y43060000D01*
X78990000Y43060000D01*
X78990000Y43059398D01*
X79014534Y43059398D01*
X79063365Y43054588D01*
X79111490Y43045016D01*
X79158445Y43030772D01*
X79203778Y43011995D01*
X79247051Y42988864D01*
X79287850Y42961604D01*
X79325779Y42930476D01*
X79360476Y42895779D01*
X79391604Y42857850D01*
X79418864Y42817051D01*
X79441995Y42773778D01*
X79460772Y42728445D01*
X79475016Y42681490D01*
X79484588Y42633365D01*
X79489398Y42584534D01*
X79489398Y42560000D01*
X79490000Y42560000D01*
X79490000Y42060000D01*
X77990000Y42060000D01*
X77990000Y42560000D01*
X77990602Y42560000D01*
G37*
%TD.AperFunction*%
%TD*%
%TA.AperFunction,SMDPad,CuDef*%
%TO.P,JP1,1*%
%TO.N,Net-(J2-Pad1)*%
G36*
X82030000Y41760000D02*
G01*
X82030000Y41260000D01*
X82029398Y41260000D01*
X82029398Y41235466D01*
X82024588Y41186635D01*
X82015016Y41138510D01*
X82000772Y41091555D01*
X81981995Y41046222D01*
X81958864Y41002949D01*
X81931604Y40962150D01*
X81900476Y40924221D01*
X81865779Y40889524D01*
X81827850Y40858396D01*
X81787051Y40831136D01*
X81743778Y40808005D01*
X81698445Y40789228D01*
X81651490Y40774984D01*
X81603365Y40765412D01*
X81554534Y40760602D01*
X81530000Y40760602D01*
X81530000Y40760000D01*
X81030000Y40760000D01*
X81030000Y40760602D01*
X81005466Y40760602D01*
X80956635Y40765412D01*
X80908510Y40774984D01*
X80861555Y40789228D01*
X80816222Y40808005D01*
X80772949Y40831136D01*
X80732150Y40858396D01*
X80694221Y40889524D01*
X80659524Y40924221D01*
X80628396Y40962150D01*
X80601136Y41002949D01*
X80578005Y41046222D01*
X80559228Y41091555D01*
X80544984Y41138510D01*
X80535412Y41186635D01*
X80530602Y41235466D01*
X80530602Y41260000D01*
X80530000Y41260000D01*
X80530000Y41760000D01*
X82030000Y41760000D01*
G37*
%TD.AperFunction*%
%TA.AperFunction,SMDPad,CuDef*%
%TO.P,JP1,2*%
%TO.N,Net-(JP1-Pad2)*%
G36*
X80530602Y42560000D02*
G01*
X80530602Y42584534D01*
X80535412Y42633365D01*
X80544984Y42681490D01*
X80559228Y42728445D01*
X80578005Y42773778D01*
X80601136Y42817051D01*
X80628396Y42857850D01*
X80659524Y42895779D01*
X80694221Y42930476D01*
X80732150Y42961604D01*
X80772949Y42988864D01*
X80816222Y43011995D01*
X80861555Y43030772D01*
X80908510Y43045016D01*
X80956635Y43054588D01*
X81005466Y43059398D01*
X81030000Y43059398D01*
X81030000Y43060000D01*
X81530000Y43060000D01*
X81530000Y43059398D01*
X81554534Y43059398D01*
X81603365Y43054588D01*
X81651490Y43045016D01*
X81698445Y43030772D01*
X81743778Y43011995D01*
X81787051Y42988864D01*
X81827850Y42961604D01*
X81865779Y42930476D01*
X81900476Y42895779D01*
X81931604Y42857850D01*
X81958864Y42817051D01*
X81981995Y42773778D01*
X82000772Y42728445D01*
X82015016Y42681490D01*
X82024588Y42633365D01*
X82029398Y42584534D01*
X82029398Y42560000D01*
X82030000Y42560000D01*
X82030000Y42060000D01*
X80530000Y42060000D01*
X80530000Y42560000D01*
X80530602Y42560000D01*
G37*
%TD.AperFunction*%
%TD*%
D16*
%TO.P,J2,4*%
%TO.N,Net-(J2-Pad4)*%
X73660000Y34290000D03*
%TO.P,J2,3*%
%TO.N,Net-(J2-Pad3)*%
X76200000Y34290000D03*
%TO.P,J2,2*%
%TO.N,Net-(J2-Pad2)*%
X78740000Y34290000D03*
%TO.P,J2,1*%
%TO.N,Net-(J2-Pad1)*%
%TA.AperFunction,ComponentPad*%
G36*
G01*
X82150000Y35135001D02*
X82150000Y33444999D01*
G75*
G02*
X81900001Y33195000I-249999J0D01*
G01*
X80659999Y33195000D01*
G75*
G02*
X80410000Y33444999I0J249999D01*
G01*
X80410000Y35135001D01*
G75*
G02*
X80659999Y35385000I249999J0D01*
G01*
X81900001Y35385000D01*
G75*
G02*
X82150000Y35135001I0J-249999D01*
G01*
G37*
%TD.AperFunction*%
%TD*%
D17*
%TO.P,A1,6*%
%TO.N,GND*%
X19050000Y49530000D03*
%TO.P,A1,5*%
%TO.N,Net-(A1-Pad5)*%
X19050000Y46990000D03*
%TO.P,A1,4*%
%TO.N,Net-(A1-Pad4)*%
X19050000Y44450000D03*
%TO.P,A1,3*%
%TO.N,Net-(A1-Pad3)*%
X19050000Y41910000D03*
%TO.P,A1,2*%
%TO.N,Net-(A1-Pad2)*%
X19050000Y39370000D03*
D18*
%TO.P,A1,1*%
%TO.N,+3V3*%
X19050000Y36830000D03*
%TD*%
D19*
%TO.P,Q2,1*%
%TO.N,Net-(J1-Pad1)*%
X55880000Y20320000D03*
D20*
%TO.P,Q2,3*%
%TO.N,GND*%
X58420000Y20320000D03*
%TO.P,Q2,2*%
%TO.N,Net-(Q2-Pad2)*%
X57150000Y21590000D03*
%TD*%
D19*
%TO.P,Q1,1*%
%TO.N,Net-(Q1-Pad1)*%
X41910000Y31750000D03*
D20*
%TO.P,Q1,3*%
%TO.N,GND*%
X41910000Y34290000D03*
%TO.P,Q1,2*%
%TO.N,Net-(Q1-Pad2)*%
X40640000Y33020000D03*
%TD*%
D13*
%TO.P,R4,2*%
%TO.N,Net-(R4-Pad2)*%
X69850000Y24130000D03*
D14*
%TO.P,R4,1*%
%TO.N,Net-(Q2-Pad2)*%
X64770000Y24130000D03*
%TD*%
D13*
%TO.P,R3,2*%
%TO.N,Net-(Q1-Pad1)*%
X39370000Y20320000D03*
D14*
%TO.P,R3,1*%
%TO.N,+3V3*%
X34290000Y20320000D03*
%TD*%
D13*
%TO.P,R2,2*%
%TO.N,Net-(J1-Pad1)*%
X49530000Y20320000D03*
D14*
%TO.P,R2,1*%
%TO.N,+5V*%
X44450000Y20320000D03*
%TD*%
D13*
%TO.P,R1,2*%
%TO.N,Net-(Q1-Pad2)*%
X35560000Y33020000D03*
D14*
%TO.P,R1,1*%
%TO.N,Net-(J1-Pad2)*%
X30480000Y33020000D03*
%TD*%
D21*
%TO.P,J1,3*%
%TO.N,GND*%
X3810000Y26670000D03*
%TO.P,J1,2*%
%TO.N,Net-(J1-Pad2)*%
X3810000Y24130000D03*
%TO.P,J1,1*%
%TO.N,Net-(J1-Pad1)*%
%TA.AperFunction,ComponentPad*%
G36*
G01*
X4655001Y20720000D02*
X2964999Y20720000D01*
G75*
G02*
X2715000Y20969999I0J249999D01*
G01*
X2715000Y22210001D01*
G75*
G02*
X2964999Y22460000I249999J0D01*
G01*
X4655001Y22460000D01*
G75*
G02*
X4905000Y22210001I0J-249999D01*
G01*
X4905000Y20969999D01*
G75*
G02*
X4655001Y20720000I-249999J0D01*
G01*
G37*
%TD.AperFunction*%
%TD*%
D22*
%TO.N,GND*%
X11430000Y49530000D03*
X63500000Y45720000D03*
X49530000Y45720000D03*
%TO.N,+3V3*%
X43180000Y-1270000D03*
X50800000Y-1270000D03*
X101600000Y-2540000D03*
X93980000Y-2540000D03*
X59690000Y39370000D03*
X59690000Y29210000D03*
%TO.N,Net-(A1-Pad2)*%
X5080000Y39370000D03*
X13970000Y39370000D03*
%TD*%
D23*
%TO.N,GND*%
X58420000Y20320000D02*
X58420000Y16510000D01*
X58420000Y16510000D02*
X53340000Y11430000D01*
X53340000Y11430000D02*
X44450000Y11430000D01*
X43180000Y10160000D02*
X43180000Y6350000D01*
X44450000Y11430000D02*
X43180000Y10160000D01*
X96520000Y11430000D02*
X93980000Y11430000D01*
X93980000Y11430000D02*
X86360000Y11430000D01*
X81280000Y16510000D02*
X58420000Y16510000D01*
X86360000Y11430000D02*
X81280000Y16510000D01*
X10160000Y34290000D02*
X11430000Y35560000D01*
X11430000Y35560000D02*
X11430000Y49530000D01*
X10160000Y29210000D02*
X5080000Y29210000D01*
X3810000Y27940000D02*
X3810000Y26670000D01*
X5080000Y29210000D02*
X3810000Y27940000D01*
X43180000Y6350000D02*
X43180000Y5080000D01*
X43180000Y6350000D02*
X43180000Y2540000D01*
X46990000Y-1270000D02*
X46990000Y-7620000D01*
X43180000Y2540000D02*
X46990000Y-1270000D01*
X46990000Y-7620000D02*
X59490000Y-7620000D01*
X72390000Y-7620000D02*
X84890000Y-7620000D01*
X32820000Y-7620000D02*
X20320000Y-7620000D01*
X-2540000Y-6350000D02*
X-1270000Y-7620000D01*
X3810000Y27940000D02*
X2540000Y29210000D01*
X2540000Y29210000D02*
X-1270000Y29210000D01*
X-1270000Y29210000D02*
X-2540000Y27940000D01*
X-2540000Y27940000D02*
X-2540000Y-6350000D01*
X-1270000Y-7620000D02*
X15240000Y-7620000D01*
X15240000Y-7620000D02*
X15240000Y-15240000D01*
X15240000Y-7620000D02*
X20320000Y-7620000D01*
X15240000Y-15240000D02*
X17780000Y-17780000D01*
X17780000Y-17780000D02*
X40640000Y-17780000D01*
X40640000Y-17780000D02*
X43180000Y-15240000D01*
X43180000Y-15240000D02*
X43180000Y-8890000D01*
X44450000Y-7620000D02*
X46990000Y-7620000D01*
X43180000Y-8890000D02*
X44450000Y-7620000D01*
X40640000Y-17780000D02*
X67310000Y-17780000D01*
X67310000Y-17780000D02*
X68580000Y-16510000D01*
X68580000Y-16510000D02*
X68580000Y-8890000D01*
X69850000Y-7620000D02*
X72390000Y-7620000D01*
X68580000Y-8890000D02*
X69850000Y-7620000D01*
X10160000Y33020000D02*
X10160000Y34290000D01*
X41910000Y35560000D02*
X41910000Y34290000D01*
X40640000Y36830000D02*
X41910000Y35560000D01*
X40640000Y36830000D02*
X25400000Y36830000D01*
X20320000Y31750000D02*
X10160000Y31750000D01*
X25400000Y36830000D02*
X20320000Y31750000D01*
X10160000Y31750000D02*
X10160000Y33020000D01*
X10160000Y29210000D02*
X10160000Y31750000D01*
X73660000Y42560000D02*
X70500000Y45720000D01*
X70500000Y45720000D02*
X63500000Y45720000D01*
X63500000Y45720000D02*
X63500000Y45720000D01*
X45720000Y49530000D02*
X19050000Y49530000D01*
X49530000Y45720000D02*
X45720000Y49530000D01*
%TO.N,Net-(J1-Pad2)*%
X19050000Y24130000D02*
X27940000Y33020000D01*
X27940000Y33020000D02*
X30480000Y33020000D01*
X3810000Y24130000D02*
X19050000Y24130000D01*
%TO.N,Net-(J1-Pad1)*%
X49530000Y20320000D02*
X55880000Y20320000D01*
X46990000Y25400000D02*
X43180000Y25400000D01*
X41910000Y17780000D02*
X40640000Y16510000D01*
X36830000Y25400000D02*
X34290000Y27940000D01*
X43180000Y25400000D02*
X41910000Y24130000D01*
X49530000Y22860000D02*
X46990000Y25400000D01*
X49530000Y20320000D02*
X49530000Y22860000D01*
X38100000Y16510000D02*
X36830000Y17780000D01*
X41910000Y24130000D02*
X41910000Y17780000D01*
X36830000Y17780000D02*
X36830000Y25400000D01*
X40640000Y16510000D02*
X38100000Y16510000D01*
X34290000Y27940000D02*
X27940000Y27940000D01*
X21590000Y21590000D02*
X3810000Y21590000D01*
X27940000Y27940000D02*
X21590000Y21590000D01*
%TO.N,Net-(Q1-Pad2)*%
X40640000Y33020000D02*
X35560000Y33020000D01*
%TO.N,+5V*%
X44450000Y20320000D02*
X44450000Y16510000D01*
X44450000Y16510000D02*
X38100000Y10160000D01*
X38100000Y10160000D02*
X38100000Y6350000D01*
%TO.N,Net-(Q1-Pad1)*%
X41910000Y31750000D02*
X41910000Y29210000D01*
X39370000Y26670000D02*
X39370000Y20320000D01*
X41910000Y29210000D02*
X39370000Y26670000D01*
X49530000Y26670000D02*
X46990000Y29210000D01*
X46990000Y29210000D02*
X41910000Y29210000D01*
X93980000Y26670000D02*
X49530000Y26670000D01*
%TO.N,+3V3*%
X35560000Y6350000D02*
X35560000Y13970000D01*
X35560000Y13970000D02*
X34290000Y15240000D01*
X34290000Y15240000D02*
X34290000Y20320000D01*
X35560000Y6350000D02*
X35560000Y2540000D01*
X39370000Y-1270000D02*
X39370000Y-7620000D01*
X35560000Y2540000D02*
X39370000Y-1270000D01*
X92710000Y-7620000D02*
X92710000Y-3810000D01*
X91440000Y-2540000D02*
X67310000Y-2540000D01*
X66040000Y-3810000D02*
X66040000Y-7620000D01*
X67310000Y-2540000D02*
X66040000Y-3810000D01*
X66040000Y-3810000D02*
X63500000Y-1270000D01*
X63500000Y-1270000D02*
X50800000Y-1270000D01*
X39370000Y-1270000D02*
X43180000Y-1270000D01*
X43180000Y-1270000D02*
X43180000Y-1270000D01*
X50800000Y-1270000D02*
X50800000Y-1270000D01*
X76200000Y42560000D02*
X76200000Y46990000D01*
X76200000Y46990000D02*
X73660000Y49530000D01*
X73660000Y49530000D02*
X67310000Y49530000D01*
X67310000Y49530000D02*
X66040000Y50800000D01*
X66040000Y50800000D02*
X66040000Y57150000D01*
X66040000Y57150000D02*
X67310000Y58420000D01*
X67310000Y58420000D02*
X99060000Y58420000D01*
X99060000Y58420000D02*
X101600000Y55880000D01*
X101600000Y55880000D02*
X101600000Y-2540000D01*
X101600000Y-2540000D02*
X101600000Y-2540000D01*
X93980000Y-2540000D02*
X92710000Y-2540000D01*
X92710000Y-2540000D02*
X92075000Y-3175000D01*
X92075000Y-3175000D02*
X91440000Y-2540000D01*
X92710000Y-3810000D02*
X92075000Y-3175000D01*
X34290000Y20320000D02*
X33490001Y19520001D01*
X67310000Y49530000D02*
X62230000Y49530000D01*
X62230000Y49530000D02*
X59690000Y46990000D01*
X59690000Y46990000D02*
X59690000Y39370000D01*
X59690000Y39370000D02*
X59690000Y39370000D01*
X59690000Y29210000D02*
X52070000Y29210000D01*
X52070000Y29210000D02*
X40640000Y40640000D01*
X40640000Y40640000D02*
X24972930Y40640000D01*
X21162930Y36830000D02*
X19050000Y36830000D01*
X24972930Y40640000D02*
X21162930Y36830000D01*
%TO.N,Net-(R4-Pad2)*%
X69850000Y24130000D02*
X93980000Y24130000D01*
%TO.N,Net-(Q2-Pad2)*%
X57150000Y21590000D02*
X57150000Y22860000D01*
X58420000Y24130000D02*
X64770000Y24130000D01*
X57150000Y22860000D02*
X58420000Y24130000D01*
%TO.N,Net-(A1-Pad5)*%
X63627000Y34290000D02*
X55880000Y34290000D01*
X43180000Y46990000D02*
X19050000Y46990000D01*
X55880000Y34290000D02*
X43180000Y46990000D01*
%TO.N,Net-(A1-Pad4)*%
X63627000Y31750000D02*
X54610000Y31750000D01*
X41910000Y44450000D02*
X19050000Y44450000D01*
X54610000Y31750000D02*
X41910000Y44450000D01*
%TO.N,Net-(A1-Pad3)*%
X15240000Y49530000D02*
X17780000Y52070000D01*
X17780000Y52070000D02*
X50800000Y52070000D01*
X54610000Y39370000D02*
X57150000Y36830000D01*
X15240000Y43180000D02*
X15240000Y49530000D01*
X16510000Y41910000D02*
X15240000Y43180000D01*
X50800000Y52070000D02*
X54610000Y48260000D01*
X57150000Y36830000D02*
X68580000Y36830000D01*
X68580000Y31750000D02*
X66167000Y31750000D01*
X19050000Y41910000D02*
X16510000Y41910000D01*
X54610000Y48260000D02*
X54610000Y39370000D01*
X68580000Y36830000D02*
X68580000Y31750000D01*
%TO.N,Net-(A1-Pad2)*%
X96520000Y13970000D02*
X99060000Y13970000D01*
X99060000Y13970000D02*
X99060000Y-16510000D01*
X99060000Y-16510000D02*
X95250000Y-20320000D01*
X9732930Y-20320000D02*
X842930Y-11430000D01*
X95250000Y-20320000D02*
X9732930Y-20320000D01*
X842930Y-11430000D02*
X-2540000Y-11430000D01*
X-2540000Y-11430000D02*
X-5080000Y-8890000D01*
X-5080000Y-8890000D02*
X-5080000Y36830000D01*
X-5080000Y36830000D02*
X-2540000Y39370000D01*
X19050000Y39370000D02*
X16486002Y39370000D01*
X-2540000Y39370000D02*
X5080000Y39370000D01*
X5080000Y39370000D02*
X5080000Y39370000D01*
X16486002Y39370000D02*
X13970000Y39370000D01*
%TO.N,Net-(J2-Pad4)*%
X73660000Y41260000D02*
X73660000Y34290000D01*
%TO.N,Net-(J2-Pad3)*%
X76200000Y34290000D02*
X76200000Y41260000D01*
%TO.N,Net-(J2-Pad2)*%
X78740000Y41260000D02*
X78740000Y34290000D01*
%TO.N,Net-(J2-Pad1)*%
X81280000Y34290000D02*
X81280000Y40640000D01*
X81280000Y40640000D02*
X81280000Y41260000D01*
%TO.N,Net-(JP1-Pad2)*%
X93980000Y41910000D02*
X87630000Y41910000D01*
X87630000Y41910000D02*
X85090000Y44450000D01*
X85090000Y44450000D02*
X82550000Y44450000D01*
X82550000Y44450000D02*
X81280000Y44450000D01*
X81280000Y44450000D02*
X81280000Y42460010D01*
%TO.N,Net-(JP2-Pad2)*%
X93980000Y44450000D02*
X90170000Y44450000D01*
X90170000Y44450000D02*
X87630000Y46990000D01*
X87630000Y46990000D02*
X82122930Y46990000D01*
X82122930Y46990000D02*
X78740000Y46990000D01*
X78740000Y46990000D02*
X78740000Y43180000D01*
X78740000Y43180000D02*
X78740000Y42460010D01*
%TO.N,Net-(R5-Pad2)*%
X59490000Y-12620000D02*
X46990000Y-12620000D01*
X59570000Y-12700000D02*
X59490000Y-12620000D01*
X66040000Y-12700000D02*
X59570000Y-12700000D01*
%TO.N,Net-(R6-Pad2)*%
X84890000Y-12620000D02*
X72390000Y-12620000D01*
X84970000Y-12700000D02*
X84890000Y-12620000D01*
X92710000Y-12700000D02*
X84970000Y-12700000D01*
%TO.N,Net-(R7-Pad2)*%
X20320000Y-12620000D02*
X32820000Y-12620000D01*
X32900000Y-12700000D02*
X32820000Y-12620000D01*
X39370000Y-12700000D02*
X32900000Y-12700000D01*
%TD*%
M02*
