M48
; DRILL file {KiCad 5.1.6-c6e7f7d~86~ubuntu16.04.1} date Sun Jun 21 20:17:03 2020
; FORMAT={-:-/ absolute / inch / decimal}
; #@! TF.CreationDate,2020-06-21T20:17:03+01:00
; #@! TF.GenerationSoftware,Kicad,Pcbnew,5.1.6-c6e7f7d~86~ubuntu16.04.1
; #@! TF.FileFunction,Plated,1,2,PTH
FMAT,2
INCH
T1C0.0295
T2C0.0315
T3C0.0400
T4C0.0469
%
G90
G05
T1
X1.6Y1.3
X1.65Y1.35
X1.65Y1.25
X2.2Y0.8
X2.25Y0.85
X2.3Y0.8
T2
X1.4Y1.3
X1.35Y0.8
X1.55Y0.8
X1.75Y0.8
X1.95Y0.8
X2.55Y0.95
X2.75Y0.95
X1.2Y1.3
T3
X0.74Y2.15
X0.84Y2.15
X0.94Y2.15
X1.04Y2.15
X1.1Y0.25
X1.14Y2.15
X1.2Y0.25
X1.24Y2.15
X1.3Y0.25
X1.34Y2.15
X1.4Y0.25
X1.44Y2.15
X1.5Y0.25
X1.54Y2.15
X1.6Y0.25
X1.64Y2.15
X1.7Y0.25
X1.8Y2.15
X1.8Y0.25
X1.9Y2.15
X2.0Y2.15
X2.0Y0.25
X2.1Y2.15
X2.1Y0.25
X2.2Y2.15
X2.2Y0.25
X2.3Y2.15
X2.3Y0.25
X2.4Y2.15
X2.4Y0.25
X2.5Y2.15
X2.5Y0.25
X2.505Y1.35
X2.505Y1.25
X2.505Y1.15
X2.6Y0.25
X2.605Y1.35
X2.605Y1.25
X2.605Y1.15
X2.7Y2.15
X2.7Y0.25
X2.8Y2.15
X2.9Y2.15
X2.9Y0.25
X3.0Y2.15
X3.0Y0.25
X3.1Y2.15
X3.1Y0.25
X3.2Y2.15
X3.2Y0.25
X3.3Y2.15
X3.3Y0.25
X3.4Y2.15
X3.4Y0.25
X3.5Y0.25
X3.6Y0.25
X3.7Y2.15
X3.7Y2.05
X3.7Y1.95
X3.7Y1.85
X3.7Y1.75
X3.7Y1.65
X3.7Y1.55
X3.7Y1.45
X3.7Y1.35
X3.7Y1.25
X3.7Y1.15
X3.7Y1.05
X3.7Y0.95
X3.7Y0.85
X3.7Y0.75
X3.7Y0.65
X3.7Y0.55
X3.7Y0.45
X3.8Y2.15
X3.8Y2.05
X3.8Y1.95
X3.8Y1.85
X3.8Y1.75
X3.8Y1.65
X3.8Y1.55
X3.8Y1.45
X3.8Y1.35
X3.8Y1.25
X3.8Y1.15
X3.8Y1.05
X3.8Y0.95
X3.8Y0.85
X3.8Y0.75
X3.8Y0.65
X3.8Y0.55
X3.8Y0.45
T4
X0.7Y1.4
X0.7Y1.3
X0.7Y1.2
T0
M30
